<?xml version="1.0" encoding="utf-8"?>
<!-- Generator: Adobe Illustrator 26.1.0, SVG Export Plug-In . SVG Version: 6.00 Build 0)  -->
<svg version="1.1" id="TreePlot" xmlns="http://www.w3.org/2000/svg" xmlns:xlink="http://www.w3.org/1999/xlink" x="0px" y="0px"
	 viewBox="0 0 500 330" style="enable-background:new 0 0 500 330;" xml:space="preserve">
<style type="text/css">
	.st0{fill:#FFFFFF;stroke:#000000;stroke-width:3;stroke-miterlimit:10.0004;}
	.st1{fill:#FFFFFF;stroke:#000000;stroke-width:3;stroke-miterlimit:10;}
	.st2{fill:#FFFFFF;stroke:#000000;stroke-width:3.0002;stroke-miterlimit:10.001;}
	.st3{fill:#FFFFFF;stroke:#000000;stroke-width:2.9998;stroke-miterlimit:9.9994;}
	.st4{fill:none;stroke:#000000;stroke-width:3.5;stroke-miterlimit:10;}
	.st5{fill:#FFFFFF;stroke:#000000;stroke-width:3.0001;stroke-miterlimit:10.0003;}
	.st6{font-family:'ArialMT';}
	.st7{font-size:10.4355px;}
	.st8{font-size:9px;}
	.st9{fill:#FFFFFF;stroke:#000000;stroke-width:2;stroke-miterlimit:10;}
	.st10{fill:none;stroke:#000000;stroke-width:2;stroke-miterlimit:10;}
	.st11{font-size:12px;}
</style>
<ellipse id="CMP" class="st0" cx="318.3" cy="153.6" rx="28.1" ry="26.2"/>
<ellipse id="HSC" class="st0" cx="215.4" cy="69.8" rx="28.1" ry="26.2"/>
<ellipse id="CLP" class="st0" cx="112.8" cy="153.6" rx="28.1" ry="26.2"/>
<path id="Myeloid" class="st1" d="M280.1,242.2c4.3,0,5.6,4.8,9.2,6.6c2.4,1.2,7.4-0.8,9.3,1.1c2.8,2.8,1.1,7.2,2.4,11
	c0.9,2.7,5.2,4.5,5.2,7.5c0,3.2-3.8,6.2-4.8,9c-1.3,3.7-0.3,7-3,9.7c-2.6,2.5-5.7,1.2-9.2,2.5c-2.9,1.1-6,5.1-9.2,5.1
	c-3.5,0-6.4-3.8-9.5-5.1c-3.6-1.4-7.1-0.5-9.7-3.2c-2.2-2.3-0.2-5.9-1.4-8.9c-1.3-3.1-5.7-5.5-5.7-9c0-3.6,4.8-4.8,6.1-7.9
	c1.5-3.6-0.4-8.8,2.4-11.4c2.3-2.1,6.2-0.1,9.2-1.3C274.6,246.6,276.7,242.2,280.1,242.2z"/>
<ellipse id="Erythroid1" class="st1" cx="347.6" cy="282.7" rx="13.6" ry="11.9"/>
<ellipse id="Erythroid2" transform="matrix(0.3613 -0.9325 0.9325 0.3613 -16.0094 531.4579)" class="st2" cx="379.9" cy="277.4" rx="11.9" ry="13.6"/>
<ellipse id="Erythroid3" transform="matrix(0.8223 -0.569 0.569 0.8223 -80.1918 248.9721)" class="st3" cx="358.6" cy="252.9" rx="13.6" ry="11.9"/>
<g>
	<g>
		<line class="st4" x1="249" y1="88.1" x2="288.2" y2="120.7"/>
		<g>
			<path d="M293.8,125.3c-3.4-1.3-8.3-2.3-11.7-2.2l5.3-3.1l2.1-5.7C290.2,117.7,292,122.2,293.8,125.3z"/>
		</g>
	</g>
</g>
<g>
	<g>
		<g>
			<line class="st4" x1="300.2" y1="188" x2="289.3" y2="225.2"/>
			<g>
				<path d="M287.2,232.3c-0.2-3.7-1.1-8.5-2.6-11.6l4.9,3.7l6.2-0.5C292.7,225.8,289.4,229.3,287.2,232.3z"/>
			</g>
		</g>
	</g>
	<g>
		<g>
			<line class="st4" x1="340.1" y1="188" x2="351" y2="225.2"/>
			<g>
				<path d="M353,232.3c-2.2-3-5.5-6.6-8.5-8.4l6.2,0.5l4.9-3.7C354.2,223.8,353.4,228.5,353,232.3z"/>
			</g>
		</g>
	</g>
</g>
<path id="Tcell" class="st1" d="M147.8,246c14.4-1.3,32.5,5.2,33.9,19.6c1.3,14.4-13.5,24.1-27.9,25.4s-30.1-5.5-31.4-19.9
	C121.1,256.7,133.4,247.4,147.8,246z"/>
<path id="Bcell" class="st5" d="M42,268.8c-0.3-14.5,12.9-23.6,27.3-23.9c14.5-0.3,29.8,7.2,30,21.6c0.3,14.5-14.2,22.7-28.7,22.9
	C56.2,289.8,42.3,283.3,42,268.8z"/>
<line class="st4" x1="181.8" y1="88.1" x2="142.6" y2="120.7"/>
<g>
	<path d="M136.9,125.3c1.8-3.2,3.8-7.7,4.4-11.2l2.1,5.7l5.3,3.1C145.1,123.1,140.4,124.1,136.9,125.3z"/>
</g>
<g>
	<g>
		<g>
			<line class="st4" x1="130.6" y1="188" x2="141.5" y2="225.2"/>
			<g>
				<path d="M143.6,232.3c-2.2-3-5.5-6.6-8.5-8.4l6.2,0.5l4.9-3.7C144.8,223.8,143.8,228.5,143.6,232.3z"/>
			</g>
		</g>
	</g>
	<g>
		<g>
			<line class="st4" x1="90.6" y1="188" x2="79.7" y2="225.2"/>
			<g>
				<path d="M77.7,232.3c-0.2-3.7-1.1-8.5-2.6-11.6l4.9,3.7l6.2-0.5C83.3,225.8,79.9,229.3,77.7,232.3z"/>
			</g>
		</g>
	</g>
</g>
<text transform="matrix(1 0 0 1 60.2852 311.9131)" class="st6 st7">Bcell</text>
<text transform="matrix(1 0 0 1 140.6768 311.9131)" class="st6 st7">Tcell</text>
<text transform="matrix(1 0 0 1 262.5167 311.9131)" class="st6 st7">Myeloid</text>
<text transform="matrix(1 0 0 1 340.1119 311.9131)" class="st6 st7">Erythroid</text>
<text transform="matrix(1 0 0 1 398.6316 311.9131)" class="st6 st8">KO inhibits cell state</text>
<text transform="matrix(1 0 0 1 393.881 17.9454)" class="st6 st8">KO promotes cell state</text>
<text transform="matrix(1 0 0 1 355.6373 157.2627)" class="st6 st7">CMP</text>
<text transform="matrix(1 0 0 1 203.5865 32.9551)" class="st6 st7">HSPC</text>
<text transform="matrix(1 0 0 1 55.5591 157.2627)" class="st6 st7">CLP</text>
<rect id="scaleBar" x="428" y="31.4" class="st9" width="22.8" height="261.8"/>
<line class="st10" x1="450.8" y1="31.4" x2="460.3" y2="31.4"/>
<line class="st10" x1="450.8" y1="75.1" x2="460.3" y2="75.1"/>
<!-- <line class="st10" x1="450.8" y1="96.9" x2="460.3" y2="96.9"/> -->
<line class="st10" x1="450.8" y1="118.7" x2="460.3" y2="118.7"/>
<line class="st10" x1="450.8" y1="162.3" x2="460.3" y2="162.3"/>
<line class="st10" x1="450.8" y1="205.9" x2="460.3" y2="205.9"/>
<!-- <line class="st10" x1="450.8" y1="227.75" x2="460.3" y2="227.75"/> -->
<line class="st10" x1="450.8" y1="249.6" x2="460.3" y2="249.6"/>
<line class="st10" x1="450.8" y1="293.2" x2="460.3" y2="293.2"/>
<text transform="matrix(1 0 0 1 468.6133 34.4702)" class="st6 st11">6</text>
<text transform="matrix(1 0 0 1 468.6133 78.093)" class="st6 st11">4</text>
<!-- <text transform="matrix(1 0 0 1 468.6133 99.9046)" class="st6 st11">2</text> -->
<text transform="matrix(1 0 0 1 468.6133 121.7162)" class="st6 st11">2</text>
<text transform="matrix(1 0 0 1 468.6133 165.3388)" class="st6 st11">0</text>
<text transform="matrix(1 0 0 1 464.9297 208.9615)" class="st6 st11">-2</text>
<!-- <text transform="matrix(1 0 0 1 464.9297 230.7728)" class="st6 st11">-2</text> -->
<text transform="matrix(1 0 0 1 464.9297 252.5841)" class="st6 st11">-4</text>
<text transform="matrix(1 0 0 1 464.9297 296.2067)" class="st6 st11">-6</text>
<g>
	<g>
		<path class="st4" d="M179.4,75c-3.2,2.5-7.3,4-11.7,4c-10.5,0-19-8.5-19-19c0-10.5,8.5-19,19-19c4.8,0,9.2,1.8,12.5,4.7"/>
		<g>
			<path d="M184.2,50.6c-2.8-1.6-6.6-3.2-9.6-3.6l5-1.9l2.6-4.6C182.2,43.6,183.1,47.6,184.2,50.6z"/>
		</g>
	</g>
</g>
</svg>
